#!OML:ASF I:\Actors\actors\Patient Classification 2\Patient 1\Session 1\actor1.ASF
:FULLY-SPECIFIED
:DEGREES

287
root -0.443151 18.0535 5.80999 2.07627 -31.4209 -1.49309
lowerback 2.4498 -8.37248 -1.97983
upperback -1.32561 -11.2111 1.52012
thorax -2.04202 -5.56286 3.0459
lowerneck -9.9142 4.44482 15.4936
upperneck 28.6023 1.12101 4.06149
head 11.2453 2.42371 -1.00021
rclavicle 1.61957e-013 -4.47266e-016
rhumerus 36.0239 41.0273 0.377311
rradius 139.368
rwrist -90.6689
rhand -2.12709 -55.5473
rfingers 7.12502
rthumb 23.5515 -84.1252
lclavicle 1.61957e-013 -4.47266e-016
lhumerus 35.2392 35.0252 91.3305
lradius 53.1543
lwrist 73.3424
lhand -33.5414 2.40715
lfingers 7.12502
lthumb -6.73684 32.28
rfemur 9.31602 17.509 13.1894
rtibia -19.6651
rfoot 3.54048 -6.84626
rtoes -0.370647
lfemur 14.7377 18.3675 -13.6504
ltibia 6.83819e-014
lfoot -18.7049 15.0297
ltoes 5.43295
288
root -0.443804 18.0537 5.81186 2.08166 -31.3977 -1.51486
lowerback 2.55161 -8.42377 -2.02742
upperback -1.38235 -11.2818 1.61531
thorax -2.12457 -5.59502 3.18891
lowerneck -9.88698 4.4803 15.488
upperneck 28.6071 1.26029 3.80023
head 11.245 2.45789 -1.0782
rclavicle 8.01622e-014 2.18663e-015
rhumerus 36.3226 41.0828 0.514724
rradius 139.315
rwrist -90.5499
rhand -2.02267 -55.557
rfingers 7.12502
rthumb 23.6516 -84.1221
lclavicle 8.01622e-014 2.18663e-015
lhumerus 35.0954 35.1966 91.2874
lradius 53.3318
lwrist 73.4468
lhand -33.3846 2.32353
lfingers 7.12502
lthumb -6.58554 32.2011
rfemur 9.3534 17.5026 13.22
rtibia -19.6984
rfoot 3.56512 -6.8462
rtoes -0.753114
lfemur 14.7466 18.3555 -13.622
ltibia 3.02153e-014
lfoot -18.7272 15.0206
ltoes 5.55876
289
root -0.444142 18.0548 5.81324 2.09087 -31.3897 -1.51561
lowerback 2.60055 -8.40659 -2.04937
upperback -1.40817 -11.2608 1.60815
thorax -2.17704 -5.58276 3.20351
lowerneck -10.0391 4.43888 15.5605
upperneck 28.6878 1.18729 3.66951
head 11.3031 2.4247 -1.14442
rclavicle 1.37045e-013 -3.47873e-015
rhumerus 36.2813 41.1462 0.357839
rradius 139.208
rwrist -90.4877
rhand -1.85096 -55.4128
rfingers 7.12502
rthumb 23.8163 -83.9565
lclavicle 1.37045e-013 -3.47873e-015
lhumerus 34.9605 35.0725 91.1371
lradius 53.4791
lwrist 73.5327
lhand -33.3648 2.20342
lfingers 7.12502
lthumb -6.56636 32.0816
rfemur 9.36404 17.5146 13.2191
rtibia -19.7208
rfoot 3.54701 -6.88198
rtoes -0.751051
lfemur 14.7381 18.3616 -13.6238
ltibia -3.18055e-015
lfoot -18.7408 15.0309
ltoes 5.49053
290
root -0.444161 18.0561 5.81519 2.13193 -31.3845 -1.52858
lowerback 2.55269 -8.34364 -2.00985
upperback -1.37889 -11.1757 1.5248
thorax -2.14976 -5.54184 3.08781
lowerneck -10.2145 4.37979 15.5986
upperneck 28.731 1.03454 3.73831
head 11.3482 2.37233 -1.14188
rclavicle -1.31888e-013 2.93207e-015
rhumerus 35.9778 41.2072 -0.0645841
rradius 139.063
rwrist -90.4201
rhand -1.75691 -55.2847
rfingers 7.12502
rthumb 23.9065 -83.8166
lclavicle -1.31888e-013 2.93207e-015
lhumerus 34.9499 34.7368 91.0038
lradius 53.5493
lwrist 73.4611
lhand -33.4774 2.1652
lfingers 7.12502
lthumb -6.67509 32.04
rfemur 9.34092 17.5125 13.2164
rtibia -19.7448
rfoot 3.55379 -6.90248
rtoes -0.758894
lfemur 14.7033 18.3749 -13.6276
ltibia -7.95139e-015
lfoot -18.7091 15.0342
ltoes 5.33372
291
root -0.443912 18.0559 5.81742 2.164 -31.3778 -1.53897
lowerback 2.51458 -8.3085 -1.99597
upperback -1.35335 -11.128 1.49272
thorax -2.11418 -5.51929 3.03897
lowerneck -10.4148 4.38442 15.6121
upperneck 28.8209 0.977468 3.77875
head 11.4217 2.36121 -1.13237
rclavicle 6.09407e-014 7.50412e-015
rhumerus 35.8749 41.2905 -0.368492
rradius 138.87
rwrist -90.3068
rhand -1.75843 -55.3956
rfingers 7.12502
rthumb 23.9051 -83.9278
lclavicle 6.09407e-014 7.50412e-015
lhumerus 34.9645 34.5144 90.9386
lradius 53.5738
lwrist 73.3528
lhand -33.5903 2.16938
lfingers 7.12502
lthumb -6.78408 32.0407
rfemur 9.34202 17.5157 13.2134
rtibia -19.7994
rfoot 3.59016 -6.91892
rtoes -0.870576
lfemur 14.6812 18.3848 -13.6278
ltibia -1.59028e-015
lfoot -18.6995 14.9956
ltoes 5.32971
292
root -0.443954 18.0549 5.82052 2.17674 -31.3896 -1.4964
lowerback 2.51088 -8.29503 -2.05253
upperback -1.37687 -11.1119 1.51327
thorax -2.12282 -5.51002 3.08988
lowerneck -10.5652 4.4471 15.5878
upperneck 28.9289 1.04024 3.75763
head 11.4973 2.39416 -1.12426
rclavicle -3.99907e-014 -3.8763e-015
rhumerus 36.0003 41.4529 -0.426868
rradius 138.624
rwrist -90.1718
rhand -1.9116 -55.382
rfingers 7.12502
rthumb 23.7582 -83.9333
lclavicle -3.99907e-014 -3.8763e-015
lhumerus 34.722 34.3577 90.7201
lradius 53.7615
lwrist 73.6934
lhand -33.9695 2.01933
lfingers 7.12502
lthumb -7.1501 31.8785
rfemur 9.36136 17.5062 13.1549
rtibia -19.9099
rfoot 3.6433 -6.93454
rtoes -0.904828
lfemur 14.664 18.4122 -13.6754
ltibia 3.49861e-014
lfoot -18.7561 14.9381
ltoes 5.53934
293
root -0.443787 18.0523 5.82654 2.13229 -31.4 -1.36504
lowerback 2.58765 -8.28926 -2.10391
upperback -1.46802 -11.1085 1.48973
thorax -2.25494 -5.50382 3.1148
lowerneck -10.7505 4.5099 15.4077
upperneck 29.1134 1.06833 3.91775
head 11.6056 2.42015 -1.02718
rclavicle -1.26185e-013 2.23633e-015
rhumerus 36.1047 41.7246 -0.358467
rradius 138.432
rwrist -90.0039
rhand -2.11564 -55.2351
rfingers 7.12502
rthumb 23.5625 -83.8116
lclavicle -1.26185e-013 2.23633e-015
lhumerus 33.8812 34.0401 90.0669
lradius 54.4693
lwrist 74.3983
lhand -35.1939 1.98073
lfingers 7.12502
lthumb -8.33195 31.7964
rfemur 9.44055 17.3962 13.0133
rtibia -20.078
rfoot 3.73755 -6.8844
rtoes -0.919443
lfemur 14.6692 18.4371 -13.8066
ltibia -5.40694e-014
lfoot -18.8345 14.89
ltoes 5.89155
294
root -0.444155 18.0471 5.83557 1.99446 -31.4391 -1.15381
lowerback 2.80403 -8.29458 -2.12066
upperback -1.64929 -11.1242 1.36903
thorax -2.58247 -5.50245 3.05822
lowerneck -10.9154 4.54543 15.2805
upperneck 29.4256 1.02973 4.08346
head 11.76 2.42769 -0.944076
rclavicle -4.60093e-014 1.54058e-015
rhumerus 36.0522 42.1136 -0.153323
rradius 138.465
rwrist -89.7366
rhand -1.41435 -55.42
rfingers 7.12502
rthumb 24.235 -83.9085
lclavicle -4.60093e-014 1.54058e-015
lhumerus 31.6571 33.0992 88.3733
lradius 57.145
lwrist 77.6596
lhand -39.0735 0.738581
lfingers 7.12502
lthumb -12.0745 30.3702
rfemur 9.60025 17.3187 12.8036
rtibia -20.276
rfoot 3.81578 -6.83577
rtoes -0.664548
lfemur 14.7426 18.4846 -13.9956
ltibia -1.11319e-014
lfoot -18.8682 14.8725
ltoes 5.90622
295
root -0.446312 18.0427 5.8464 1.88765 -31.5037 -0.994964
lowerback 3.85884 -8.2909 -2.44683
upperback -2.38148 -11.159 1.64747
thorax -3.81232 -5.47 3.75666
lowerneck -10.8549 4.48132 14.9686
upperneck 30.0171 1.04895 3.80796
head 11.9692 2.40112 -0.991782
rclavicle 8.93568e-014 -9.93923e-017
rhumerus 36.2097 42.7932 1.05264
rradius 139.415
rwrist -90.8901
rhand -2.28843 -56.3193
rfingers 7.12502
rthumb 23.3967 -84.9171
lclavicle 8.93568e-014 -9.93923e-017
lhumerus 27.1923 31.9742 86.0897
lradius 62.2817
lwrist 81.3077
lhand -42.1671 -1.77175
lfingers 7.12502
lthumb -15.0561 27.6608
rfemur 9.75607 17.3455 12.6385
rtibia -20.4685
rfoot 3.86812 -6.85154
rtoes -0.404706
lfemur 14.8267 18.5558 -14.1261
ltibia 3.81667e-014
lfoot -18.9084 14.8652
ltoes 5.58062
296
root -0.450687 18.0418 5.86092 1.91927 -31.5345 -1.01013
lowerback 4.39262 -8.26864 -2.52182
upperback -2.78017 -11.1441 1.87212
thorax -4.47047 -5.43269 4.1525
lowerneck -10.5615 4.418 14.1763
upperneck 29.9369 1.12803 4.096
head 11.8526 2.37623 -0.753022
rclavicle -1.47573e-013 -1.64991e-014
rhumerus 36.7616 42.1504 3.54564
rradius 141.145
rwrist -92.7756
rhand -3.16135 -56.1575
rfingers 7.12502
rthumb 22.5591 -84.8595
lclavicle -1.47573e-013 -1.64991e-014
lhumerus 22.3039 30.2896 83.6254
lradius 69.2893
lwrist 84.6912
lhand -42.9142 -4.75295
lfingers 7.12502
lthumb -15.7758 24.6242
rfemur 9.86882 17.3485 12.6381
rtibia -20.6192
rfoot 3.98516 -6.85171
rtoes -0.727232
lfemur 14.8736 18.5966 -14.099
ltibia 4.77083e-015
lfoot -18.9483 14.8597
ltoes 5.18412
297
root -0.458321 18.045 5.88132 2.02816 -31.5275 -1.07156
lowerback 4.61565 -8.18767 -2.49358
upperback -3.02819 -11.0363 2.04062
thorax -4.83672 -5.36291 4.36636
lowerneck -10.6628 4.31536 13.365
upperneck 29.9486 1.02077 4.54829
head 11.8465 2.29652 -0.466441
rclavicle -4.76462e-014 5.96354e-015
rhumerus 34.6949 41.6409 3.94594
rradius 142.998
rwrist -93.3772
rhand -2.67754 -56.8823
rfingers 7.12502
rthumb 23.0234 -85.5272
lclavicle -4.76462e-014 5.96354e-015
lhumerus 17.9541 28.4413 81.7846
lradius 76.1377
lwrist 85.7914
lhand -41.4901 -3.22921
lfingers 7.12502
lthumb -14.4039 26.251
rfemur 9.91826 17.3092 12.6748
rtibia -20.7081
rfoot 4.09245 -6.85729
rtoes -0.949565
lfemur 14.8836 18.6026 -14.035
ltibia 1.59028e-014
lfoot -18.9177 14.8476
ltoes 4.80806
298
root -0.468887 18.049 5.90829 2.12989 -31.4549 -1.06792
lowerback 4.69742 -8.06161 -2.5099
upperback -3.32152 -10.8686 2.21367
thorax -5.16894 -5.26232 4.58553
lowerneck -10.4557 4.20423 12.6161
upperneck 29.7508 1.02073 4.82725
head 11.6985 2.23781 -0.248869
rclavicle -2.25049e-013 1.59028e-015
rhumerus 33.0568 40.3947 5.13307
rradius 144.833
rwrist -93.7449
rhand -1.28987 -56.6627
rfingers 7.12502
rthumb 24.3543 -85.1352
lclavicle -2.25049e-013 1.59028e-015
lhumerus 14.8033 27.4747 81.3772
lradius 81.0897
lwrist 87.4334
lhand -36.9924 0.0615092
lfingers 7.12502
lthumb -10.0673 29.8007
rfemur 9.9422 17.186 12.6455
rtibia -20.7318
rfoot 4.0536 -6.88708
rtoes -0.425007
lfemur 14.8791 18.5453 -14.0389
ltibia -3.33958e-014
lfoot -18.8833 14.8139
ltoes 4.49535
299
root -0.482295 18.0498 5.9393 2.15303 -31.293 -1.052
lowerback 4.60632 -7.95317 -2.48979
upperback -3.65173 -10.7178 2.40429
thorax -5.44623 -5.17292 4.78005
lowerneck -10.1885 4.13469 11.969
upperneck 29.8703 1.13693 4.7613
head 11.6691 2.2161 -0.156817
rclavicle -8.00357e-014 7.95139e-016
rhumerus 31.5154 39.0303 6.24285
rradius 146.303
rwrist -94.3964
rhand -0.15508 -56.4311
rfingers 7.12502
rthumb 25.4418 -84.7531
lclavicle -8.00357e-014 7.95139e-016
lhumerus 13.8875 27.0724 82.1165
lradius 81.5682
lwrist 88.6986
lhand -36.6345 0.632395
lfingers 7.12502
lthumb -9.72199 30.388
rfemur 10.05 16.8908 12.6444
rtibia -20.6834
rfoot 3.95392 -6.79272
rtoes 0.230121
lfemur 14.9558 18.3925 -14.0329
ltibia 4.77083e-015
lfoot -18.8862 14.7688
ltoes 4.32978
300
root -0.499929 18.0484 5.96844 2.11278 -31.0225 -1.13262
lowerback 4.40843 -7.94736 -2.3256
upperback -4.00685 -10.6916 2.60225
thorax -5.70398 -5.1516 4.90042
lowerneck -9.9518 4.18066 11.4114
upperneck 30.4492 1.38475 4.55159
head 11.837 2.26383 -0.106449
rclavicle -1.43721e-013 4.37326e-015
rhumerus 31.8772 37.8636 6.22605
rradius 146.604
rwrist -94.6619
rhand -1.59348 -56.622
rfingers 7.12502
rthumb 24.0632 -85.1333
lclavicle -1.43721e-013 4.37326e-015
lhumerus 14.6829 26.8287 82.7351
lradius 78.445
lwrist 87.0537
lhand -38.9859 0.111677
lfingers 7.12502
lthumb -11.9901 29.7483
rfemur 10.2792 16.5889 12.7936
rtibia -20.5749
rfoot 3.80541 -6.70282
rtoes 0.913529
lfemur 15.1403 18.1167 -13.8831
ltibia -3.18055e-015
lfoot -18.9056 14.6979
ltoes 4.48776
301
root -0.519681 18.0485 5.99294 2.07234 -30.6295 -1.35844
lowerback 4.2129 -8.07145 -2.00181
upperback -4.35473 -10.8279 2.78888
thorax -5.97267 -5.21796 4.93693
lowerneck -9.82753 4.30681 11.2491
upperneck 31.2667 1.7208 4.01301
head 12.144 2.36259 -0.226384
rclavicle -1.08636e-013 -2.34566e-014
rhumerus 32.5059 37.154 6.45391
rradius 145.932
rwrist -94.0973
rhand -2.50231 -56.4068
rfingers 7.12502
rthumb 23.1915 -85.0306
lclavicle -1.08636e-013 -2.34566e-014
lhumerus 15.2456 26.9996 82.9486
lradius 75.4496
lwrist 85.7364
lhand -40.6862 -0.881853
lfingers 7.12502
lthumb -13.6292 28.652
rfemur 10.601 16.3955 13.1196
rtibia -20.4423
rfoot 3.6013 -6.73718
rtoes 1.48152
lfemur 15.3706 17.7106 -13.5677
ltibia -2.70347e-014
lfoot -18.8929 14.6568
ltoes 4.67328
